<?xml version="1.0"?><svg id="Layer_1" data-name="Layer 1" xmlns="http://www.w3.org/2000/svg" viewBox="0 0 1181 1072.89" xmlns:c2pa="http://c2pa.org/manifest"><metadata><c2pa:manifest>AAAWgmp1bWIAAAAeanVtZGMycGEAEQAQgAAAqgA4m3EDYzJwYQAAABZcanVtYgAAAEdqdW1kYzJtYQARABCAAACqADibcQN1cm46YzJwYTpjNjU3YTUyYi01ZTA2LTQwZjctOWM5ZS0wOWExM2VhNTJmNDEAAAADl2p1bWIAAAApanVtZGMyYXMAEQAQgAAAqgA4m3EDYzJwYS5hc3NlcnRpb25zAAAAALxqdW1iAAAARGp1bWRjYm9yABEAEIAAAKoAOJtxE2MycGEuaW5ncmVkaWVudC52MwAAAAAYYzJzaAo3Rb+gwsSR5TQaO0sM0lkAAABwY2JvcqNpZGM6Zm9ybWF0bWltYWdlL3N2Zyt4bWxqaW5zdGFuY2VJRHgseG1wOmlpZDowYzNiNGMzOS05MGViLTQ2NmQtOTZhNC0yY2U3ZDE2YmJkN2FscmVsYXRpb25zaGlwaHBhcmVudE9mAAAB4mp1bWIAAABBanVtZGNib3IAEQAQgAAAqgA4m3ETYzJwYS5hY3Rpb25zLnYyAAAAABhjMnNongiDu0weFb21L86LPYkEWQAAAZljYm9yomdhY3Rpb25zgqJmYWN0aW9ua2MycGEub3BlbmVkanBhcmFtZXRlcnOha2luZ3JlZGllbnRzgaJjdXJseC1zZWxmI2p1bWJmPWMycGEuYXNzZXJ0aW9ucy9jMnBhLmluZ3JlZGllbnQudjNkaGFzaFgg/Ah6lp14Nf8OAGCf89ibrBjFfllVFLih6fBgslmLrcKkZmFjdGlvbngdY29tLmFudGhyb3BpYy5jbGF1ZGUucHJvdmlkZWRqcGFyYW1ldGVyc6F4H2NvbS5hbnRocm9waWMub3JpZ2luLWNvbmZpZGVuY2VndW5rbm93bmtkZXNjcmlwdGlvbnhmQ2xhdWRlIHByb3ZpZGVkIHRoaXMgZmlsZSBhdCB0aGUgcmVxdWVzdCBvZiBhIHVzZXIgYW5kIG1heSBoYXZlIGNyZWF0ZWQgb3IgbW9kaWZpZWQgdGhlIGZpbGUgY29udGVudHMubXNvZnR3YXJlQWdlbnShZG5hbWVmQ2xhdWRlcmFsbEFjdGlvbnNJbmNsdWRlZPUAAADIanVtYgAAAEBqdW1kY2JvcgARABCAAACqADibcRNjMnBhLmhhc2guZGF0YQAAAAAYYzJzaB/l+MLeDoU75J/j0l4TfTcAAACAY2JvcqVjYWxnZnNoYTI1NmNwYWRNAAAAAAAAAAAAAAAAAGRoYXNoWCCBzZpt3z3iCcdLea1z6Huz2X3fDdkilQ4G0+3T/t1hB2RuYW1lbmp1bWJmIG1hbmlmZXN0amV4Y2x1c2lvbnOBomVzdGFydBi4Zmxlbmd0aBkeBAAAAj5qdW1iAAAAJ2p1bWRjMmNsABEAEIAAAKoAOJtxA2MycGEuY2xhaW0udjIAAAACD2Nib3KlY2FsZ2ZzaGEyNTZpc2lnbmF0dXJleE1zZWxmI2p1bWJmPS9jMnBhL3VybjpjMnBhOmM2NTdhNTJiLTVlMDYtNDBmNy05YzllLTA5YTEzZWE1MmY0MS9jMnBhLnNpZ25hdHVyZWppbnN0YW5jZUlEeCx4bXA6aWlkOmRmN2Q2MmJhLTdkZmUtNDE3Yy05MDNkLTUxMzNlNTc4Yjk2NnJjcmVhdGVkX2Fzc2VydGlvbnODomN1cmx4LXNlbGYjanVtYmY9YzJwYS5hc3NlcnRpb25zL2MycGEuaW5ncmVkaWVudC52M2RoYXNoWCD8CHqWnXg1/w4AYJ/z2JusGMV+WVUUuKHp8GCyWYutwqJjdXJseCpzZWxmI2p1bWJmPWMycGEuYXNzZXJ0aW9ucy9jMnBhLmFjdGlvbnMudjJkaGFzaFgg5Gickwc/HRJzKnjCLsjTRz5bhw5QRojvfpA5Yk5bjUqiY3VybHgpc2VsZiNqdW1iZj1jMnBhLmFzc2VydGlvbnMvYzJwYS5oYXNoLmRhdGFkaGFzaFggkj8lShQhTCY13sWSBdbQyeXxkchALD4tuVBA0dXhn7p0Y2xhaW1fZ2VuZXJhdG9yX2luZm+jZG5hbWVvQW50aHJvcGljIEZpbGVzZ3ZlcnNpb25lMS4wLjBrc3BlY1ZlcnNpb25lMi40LjAAABA4anVtYgAAAChqdW1kYzJjcwARABCAAACqADibcQNjMnBhLnNpZ25hdHVyZQAAABAIY2JvctKEWQISogEmGCFZAgowggIGMIIBjaADAgECAhRA5aAK7sI50L64g/oGQgU9Z1UTADAKBggqhkjOPQQDAzBJMRcwFQYDVQQKEw5BbnRocm9waWMsIFBCQzEuMCwGA1UEAxMlQW50aHJvcGljIENvbnRlbnQgQ3JlZGVudGlhbHMgUm9vdCBDQTAeFw0yNjA4MDcxODQzNTZaFw0yODA4MDYxOTQzNTZaMEQxFzAVBgNVBAoTDkFudGhyb3BpYywgUEJDMSkwJwYDVQQDEyBBbnRocm9waWMgQ2xhdWRlIENvbnRlbnQgU2lnbmluZzBZMBMGByqGSM49AgEGCCqGSM49AwEHA0IABJh6CmvLUBgFFNU0vUKlOVtE6djd17L5SuwX0LemFisBM3dkd/3cyjxFA3Qo5S46fX0/ihY0VZ7mfb9KF703t5OjWDBWMA4GA1UdDwEB/wQEAwIHgDAVBgNVHSUEDjAMBgorBgEEAYPoXgIBMAwGA1UdEwEB/wQCMAAwHwYDVR0jBBgwFoAUzlHiBIFOZFsj+OPEz5o+nMHXXMIwCgYIKoZIzj0EAwMDZwAwZAIwMXMdFJ4BetLLVY7ORuE9noqbbAZOZn/aArXyTwFAZfKrPzxF2vPoJNf1+UCdg1XGAjBwX1zd9WGqYkqmL5SFqw1QySjr1zJfpJM9+1rdDwSPLMOPOjKuiXjoU/pUUeG9RwmhY3BhZFkNngAAAAAAAAAAAAAAAAAAAAAAAAAAAAAAAAAAAAAAAAAAAAAAAAAAAAAAAAAAAAAAAAAAAAAAAAAAAAAAAAAAAAAAAAAAAAAAAAAAAAAAAAAAAAAAAAAAAAAAAAAAAAAAAAAAAAAAAAAAAAAAAAAAAAAAAAAAAAAAAAAAAAAAAAAAAAAAAAAAAAAAAAAAAAAAAAAAAAAAAAAAAAAAAAAAAAAAAAAAAAAAAAAAAAAAAAAAAAAAAAAAAAAAAAAAAAAAAAAAAAAAAAAAAAAAAAAAAAAAAAAAAAAAAAAAAAAAAAAAAAAAAAAAAAAAAAAAAAAAAAAAAAAAAAAAAAAAAAAAAAAAAAAAAAAAAAAAAAAAAAAAAAAAAAAAAAAAAAAAAAAAAAAAAAAAAAAAAAAAAAAAAAAAAAAAAAAAAAAAAAAAAAAAAAAAAAAAAAAAAAAAAAAAAAAAAAAAAAAAAAAAAAAAAAAAAAAAAAAAAAAAAAAAAAAAAAAAAAAAAAAAAAAAAAAAAAAAAAAAAAAAAAAAAAAAAAAAAAAAAAAAAAAAAAAAAAAAAAAAAAAAAAAAAAAAAAAAAAAAAAAAAAAAAAAAAAAAAAAAAAAAAAAAAAAAAAAAAAAAAAAAAAAAAAAAAAAAAAAAAAAAAAAAAAAAAAAAAAAAAAAAAAAAAAAAAAAAAAAAAAAAAAAAAAAAAAAAAAAAAAAAAAAAAAAAAAAAAAAAAAAAAAAAAAAAAAAAAAAAAAAAAAAAAAAAAAAAAAAAAAAAAAAAAAAAAAAAAAAAAAAAAAAAAAAAAAAAAAAAAAAAAAAAAAAAAAAAAAAAAAAAAAAAAAAAAAAAAAAAAAAAAAAAAAAAAAAAAAAAAAAAAAAAAAAAAAAAAAAAAAAAAAAAAAAAAAAAAAAAAAAAAAAAAAAAAAAAAAAAAAAAAAAAAAAAAAAAAAAAAAAAAAAAAAAAAAAAAAAAAAAAAAAAAAAAAAAAAAAAAAAAAAAAAAAAAAAAAAAAAAAAAAAAAAAAAAAAAAAAAAAAAAAAAAAAAAAAAAAAAAAAAAAAAAAAAAAAAAAAAAAAAAAAAAAAAAAAAAAAAAAAAAAAAAAAAAAAAAAAAAAAAAAAAAAAAAAAAAAAAAAAAAAAAAAAAAAAAAAAAAAAAAAAAAAAAAAAAAAAAAAAAAAAAAAAAAAAAAAAAAAAAAAAAAAAAAAAAAAAAAAAAAAAAAAAAAAAAAAAAAAAAAAAAAAAAAAAAAAAAAAAAAAAAAAAAAAAAAAAAAAAAAAAAAAAAAAAAAAAAAAAAAAAAAAAAAAAAAAAAAAAAAAAAAAAAAAAAAAAAAAAAAAAAAAAAAAAAAAAAAAAAAAAAAAAAAAAAAAAAAAAAAAAAAAAAAAAAAAAAAAAAAAAAAAAAAAAAAAAAAAAAAAAAAAAAAAAAAAAAAAAAAAAAAAAAAAAAAAAAAAAAAAAAAAAAAAAAAAAAAAAAAAAAAAAAAAAAAAAAAAAAAAAAAAAAAAAAAAAAAAAAAAAAAAAAAAAAAAAAAAAAAAAAAAAAAAAAAAAAAAAAAAAAAAAAAAAAAAAAAAAAAAAAAAAAAAAAAAAAAAAAAAAAAAAAAAAAAAAAAAAAAAAAAAAAAAAAAAAAAAAAAAAAAAAAAAAAAAAAAAAAAAAAAAAAAAAAAAAAAAAAAAAAAAAAAAAAAAAAAAAAAAAAAAAAAAAAAAAAAAAAAAAAAAAAAAAAAAAAAAAAAAAAAAAAAAAAAAAAAAAAAAAAAAAAAAAAAAAAAAAAAAAAAAAAAAAAAAAAAAAAAAAAAAAAAAAAAAAAAAAAAAAAAAAAAAAAAAAAAAAAAAAAAAAAAAAAAAAAAAAAAAAAAAAAAAAAAAAAAAAAAAAAAAAAAAAAAAAAAAAAAAAAAAAAAAAAAAAAAAAAAAAAAAAAAAAAAAAAAAAAAAAAAAAAAAAAAAAAAAAAAAAAAAAAAAAAAAAAAAAAAAAAAAAAAAAAAAAAAAAAAAAAAAAAAAAAAAAAAAAAAAAAAAAAAAAAAAAAAAAAAAAAAAAAAAAAAAAAAAAAAAAAAAAAAAAAAAAAAAAAAAAAAAAAAAAAAAAAAAAAAAAAAAAAAAAAAAAAAAAAAAAAAAAAAAAAAAAAAAAAAAAAAAAAAAAAAAAAAAAAAAAAAAAAAAAAAAAAAAAAAAAAAAAAAAAAAAAAAAAAAAAAAAAAAAAAAAAAAAAAAAAAAAAAAAAAAAAAAAAAAAAAAAAAAAAAAAAAAAAAAAAAAAAAAAAAAAAAAAAAAAAAAAAAAAAAAAAAAAAAAAAAAAAAAAAAAAAAAAAAAAAAAAAAAAAAAAAAAAAAAAAAAAAAAAAAAAAAAAAAAAAAAAAAAAAAAAAAAAAAAAAAAAAAAAAAAAAAAAAAAAAAAAAAAAAAAAAAAAAAAAAAAAAAAAAAAAAAAAAAAAAAAAAAAAAAAAAAAAAAAAAAAAAAAAAAAAAAAAAAAAAAAAAAAAAAAAAAAAAAAAAAAAAAAAAAAAAAAAAAAAAAAAAAAAAAAAAAAAAAAAAAAAAAAAAAAAAAAAAAAAAAAAAAAAAAAAAAAAAAAAAAAAAAAAAAAAAAAAAAAAAAAAAAAAAAAAAAAAAAAAAAAAAAAAAAAAAAAAAAAAAAAAAAAAAAAAAAAAAAAAAAAAAAAAAAAAAAAAAAAAAAAAAAAAAAAAAAAAAAAAAAAAAAAAAAAAAAAAAAAAAAAAAAAAAAAAAAAAAAAAAAAAAAAAAAAAAAAAAAAAAAAAAAAAAAAAAAAAAAAAAAAAAAAAAAAAAAAAAAAAAAAAAAAAAAAAAAAAAAAAAAAAAAAAAAAAAAAAAAAAAAAAAAAAAAAAAAAAAAAAAAAAAAAAAAAAAAAAAAAAAAAAAAAAAAAAAAAAAAAAAAAAAAAAAAAAAAAAAAAAAAAAAAAAAAAAAAAAAAAAAAAAAAAAAAAAAAAAAAAAAAAAAAAAAAAAAAAAAAAAAAAAAAAAAAAAAAAAAAAAAAAAAAAAAAAAAAAAAAAAAAAAAAAAAAAAAAAAAAAAAAAAAAAAAAAAAAAAAAAAAAAAAAAAAAAAAAAAAAAAAAAAAAAAAAAAAAAAAAAAAAAAAAAAAAAAAAAAAAAAAAAAAAAAAAAAAAAAAAAAAAAAAAAAAAAAAAAAAAAAAAAAAAAAAAAAAAAAAAAAAAAAAAAAAAAAAAAAAAAAAAAAAAAAAAAAAAAAAAAAAAAAAAAAAAAAAAAAAAAAAAAAAAAAAAAAAAAAAAAAAAAAAAAAAAAAAAAAAAAAAAAAAAAAAAAAAAAAAAAAAAAAAAAAAAAAAAAAAAAAAAAAAAAAAAAAAAAAAAAAAAAAAAAAAAAAAAAAAAAAAAAAAAAAAAAAAAAAAAAAAAAAAAAAAAAAAAAAAAAAAAAAAAAAAAAAAAAAAAAAAAAAAAAAAAAAAAAAAAAAAAAAAAAAAAAAAAAAAAAAAAAAAAAAAAAAAAAAAAAAAAAAAAAAAAAAAAAAAAAAAAAAAAAAAAAAAAAAAAAAAAAAAAAAAAAAAAAAAAAAAAAAAAAAAAAAAAAAAAAAAAAAAAAAAAAAAAAAAAAAAAAAAAAAAAAAAAAAAAAAAAAAAAAAAAAAAAAAAAAAAAAAAAAAAAAAAAAAAAAAAAAAAAAAAAAAAAAAAAAAAAAAAAAAAAAAAAAAAAAAAAAAAAAAAAAAAAAAAAAAAAAAAAAAAAAAAAAAAAAAAAAAAAAAAAAAAAAAAAAAAAAAAAAAAAAAAAAAAAAAAAAAAAAAAAAAAAAAAAAAAAAAAAAAAAAAAAAAAAAAAAAAAAAAAAAAAAAAAAAAAAAAAAAAAAAAAAAAAAAAAAAAAAAAAAAAAAAAAAAAAAAAAAAAAAAAAAAAAAAAAAAAAAAAAAAAAAAAAAAAAAAAAAAAAAAAAAAAAAAAAAAAAAAAAAAAAAAAAAAAAAAAAAAAAAAAAAAAAAAAAAAAAAAAAAAAAAAAAAAAAAAAAAAAAAAAAAAAAAAAAAAAAAAAAAAAAAAAAAAAAAAAAAAAAAAAAAAAAAAAAAAAAAAAAAAAAAAAAAAAAAAAAAAAAAAAAAAAAAAAAAAAAAAAAAAAAAAAAAAAAAAAAAAAAAAAAAAAAAAAAAAAAAAAAAAAAAAAAAAAAAAAAAAAAAAAAAAAAAAAAAAAAAAAAAAAAAAAAAAAAAAAAAAAAAAAAAAAAAAAAAAAAAAAAAAAAAAAAAAAAAAAAAAAAAAAAAAAAAAAAAAAAAAAAAAAAAAAAAAAAAAAAAAAAAAAAAAAAAAAAAAAAAAAAAAAAAAAAAAAAAAAAAAAAAAAAAAAAAAAAAAAAAAAAAAAAAAAAAAAAAAAAAAAAAAAAAAAAAAAAAAAAAAAAAAAAAAAAAAAAAAAAAAAAAAAAAAAAAAAAAAAAAAAAAAAAAAAAAAAAAAAAAAAAAAAAAAAAAAAAAAAAAAAAAAAAAAAAAAAAAAAAAAAAAAAAAAAAAAAAAAAAAAAAAAAAAAAAAAAAAAAAAAAAAAAAAAAAAAAAAAAAAAAAAAAAAAAAAAAAAAAAAAAAAAAAAAAAAAAAAAAAAAAAAAAAAAAAAAAAAAAAAAAAAAAAAAAAAAAAAAAAAAAAAAAAAAAAAAAAAAAAAAAAAAAAAAAAAAAAAAAAAAAAAAAAAAAAAAAAAPZYQE0hSsd5EGq7JEj0xiT6oWYqNWaAxJqn9CL9hUQIS35mipBK+EaUMIbc6iINiVw57I64xtbPjaM3Ag6oLol0xRM=</c2pa:manifest>
</metadata>
  <defs>
    
  </defs>
  <rect class="cls-11" width="1181" height="1072.89"></rect>
  <path class="cls-9" d="M287.01,808.66c1.14-1.13,21.81-42.46,24.51-47.59,4.75,29.48-5.21,38.31-8.18,64.73-5.32,3.23-16.09-2.97-21.31-5.68,1.81-3.52,4.17-7.44,4.99-11.46Z"></path>
  <polygon class="cls-13" points="77.31 757.66 471.83 819.82 614.77 737.31 542.49 724.89 77.31 757.66"></polygon>
  <g id="Generative_Object_165_0_" data-name="Generative Object (165, 0)">
    <path class="cls-8" d="M64.36,754.95c18.95,4.63,38.41,6.39,58.88,6.85l73.77,1.68,35.04,1.94c42.73,7.05,85.35,15.9,128.72,25.79,20.33,4.64,39.9,3.4,59.38,2.08,32.61.36,70.31,3.53,101.99-3.59l23.13,16.85c3.18,2.32,6.42,2.96,9.09,4.61l20.57,12.7c33.55,10.63,48.37-2.6,78.4-1.57.28,14.88,5.42,29.97,19.44,36.44,15.23,7.03,32.53,7.27,48.22,10.15l23.56,4.33c26.55,7.18,52.25,14.58,79.84,18.84l51.59,1.16c19.05.43,37.55.2,56.17-2.25,8.87-1.17,17.2-2.87,23.62-9.44l-10.67-30.96-33.7-75.31,120.96,13.15c27.23,2.32,51.87,7.13,78.37,13.36,36.24,7.63,71.08,14.88,108.74,20.06l-6.68,271.21-171.36,8.52h-166.23l-881.31-14.25-32.37-5.3-.24-299.04,74.97-24.77c9.57-3.16,18.82-4.49,28.09-3.22Z"></path>
    <path class="cls-14" d="M543.82,725.84c.53-1.08-.66-1.41-1.32-.96l-1.53-2.78c-7.47-13.62-23.63-19.54-39.97-17.59-24.59,2.94-52.09,17.68-79.67,17.83l-24.52.13c-1.55.81-3.62,2.27-4.9,2.55l-7.45,1.65c-8.72,1.94-16.8,4.31-25.11,5.17-6.52.67-12.54,2.79-17.34,8.3-1.72.01-2.92,1.95-3.58,2.61l-2.67,2.65c-10.41-1.56-20.87,1.67-31.68,3.66l-70.07,12.96c1.86,1.61,1.15,2.73.62,2.94s-1.67-.09-2.57.44l-35.04-1.94-73.77-1.68c-20.47-.47-39.93-2.22-58.88-6.85-1.9-13.81-12.17-32.69-8.16-46.45,28.69-98.55,56.61-196.04,82.17-296.16l156.89-4.79c24.91,2.46,32.19,1.33,49.71,2.59,9.46-1.14,14.62,1.58,28.99,1.5l99.3,10.26c3.54-.91,5.9,7.55,6.99,9.83l22.31,86.91c12.2,44.81,20.55,89.04,29.06,134.52l11.63,62.11c.65,3.49,2.75,6.6.56,10.58Z"></path>
    <path class="cls-4" d="M810.87,354.49c3.42,10.77,14.73,18.48,19.03,35.87,3.7,14.98,7.8,31.23,5.96,46.87-2.18,18.62-7.5,35.83-7.15,54.75l4.34,46.94,6.14,47.33-10.42,1.24-38.44-.92-44.22,3.98-53.95-4.71c-6-4.88-12.5-11.63-20.63-13.3l-1.36-13.39c-3.19-1.11-7.39.81-9.82.58-5.26-1.86-11.58-2.92-18.08-3.05,10.28-18.79,17.31-39.17,22.33-60.63l12.61-53.87c6.12-26.15,9.82-52.2,19.84-77.22.79-1.97,2.58-3.64,1.09-5.77-.77-1.09-2.02-2.52-4.05-2.37-1.69.12-3.02,1.66-3.8,3.97-18.88,56.11-22.7,117.76-44.26,172.72-5.29,13.48-16.98,37.11-24.62,35.47-7.01-1.51-10.81-19.81-10.29-31.26l1.56-34.2c2.89-26.8,12.21-50.99,18.17-77.83-11.97,14.22-13.55,32.02-17.75,48.46-4.59,17.96-6.5,35.48-6.64,54.09-.05,6-12.24,5.84-17,9.51-.7-.41-1.44-1.21-3.17-1.29-6.35-9.82-9.44-20.72-12.89-31.21,5.33-2.52,10.04-6.89,13.25-12.78-7.65-1.17-9.53,6.17-14.61,7.1-.81-11.11,2.88-18.29,2.59-26.34,8.63-10.84,18.21-11.93,28.66-19.38,1.92-1.37,3.62-2.7,4.33-6.2l7.17-35.65-.2-4.36c3.49-18.76,15.45-34.95,30.83-47.5l41.59-27.91c42.63-14.68,93.72-10.58,123.86,22.25Z"></path>
    <path class="cls-4" d="M860.96,653.41l7.77,20.03.13,2.08c-.14.34-.08,1.01.53,1.68l.29,2.43c-.11,1.56.62,2.96,2.26,2.72-.2.42-.4,1.07-.35,1.44.62,4.61,1.05,11.23,5.91,13.33,1.4,10.67,6.82,20.65,11.71,31.02l22.2,47.12,33.7,75.31,10.67,30.96c-6.42,6.57-14.74,8.27-23.62,9.44-18.61,2.45-37.12,2.68-56.17,2.25l-51.59-1.16c-27.59-4.26-53.29-11.66-79.84-18.84l-23.56-4.33-12.94-12.82c-15.24-19.69-27.45-41.01-38.14-63.47-2.23-4.7-3.41-9.68-8.42-12.49l-19.6-11.02,9.56-37.34c9.66-21.77,61.86-37.45,88.32-45.44l40.6-12.28c10.91-3.3,24.27,5.76,51.05-6.78l29.54-13.84Z"></path>
    <path class="cls-7" d="M839.19,586.24c1.67-.2,3.42,1.86,4.79,2.89,23.97,5.76,44.85,16.81,65.98,29.67l30.47,18.55c23.72,14.44,46.95,28.19,72.7,39.68,17.63,2.6,34.68.97,51.73-3.01,9.42-1.97,20.08-.72,22.07,3.3,3.42,6.91-30.98,14.33-45.5,12.65l-15.27-1.76c3.11,4.28,7.95,3.95,11.95,5.49,19.06,7.35,45.71-4.93,52.2,8.08,3.03,6.07-27.91,9.02-47.43,5.57-8.04-1.42-15.4-1.53-24.09-1.3,4.15,5.31,8.48,9.03,13.77,12.61-15.26,12.1-29.62-12.1-50.14-18.55l7.2,10.49c3.61,5.27-14.46,10.28-35.65-14.83-2.63-3.12-4.46-7.25-8.86-9.07l-67.55-27.96c-5.74-2.38-11.99-1.2-16.6-5.33l-29.54,13.84c-26.78,12.54-40.14,3.48-51.05,6.78-.12-1.98-1.29-3.21-2.61-3.29-1.47-.09-3.84-.75-4.94-.41-11.65-4.74-24.55-10.35-38.45-11.28-20.44-1.37-40.29-1.16-59.51-7.35-17.43-5.61-36.8,1.51-47.27-7.91,12.08-19.95,24.46-40.54,32.41-63.49,2.03-6.19-2.19-14.61.33-20.55,2.43.23,6.64-1.69,9.82-.58l1.36,13.39c8.13,1.68,14.64,8.42,20.63,13.3l53.95,4.71,44.22-3.98,38.44.92,10.42-1.24Z"></path>
    <path class="cls-9" d="M772.83,670.32c1.1-.33,3.46.32,4.94.41,1.33.08,2.49,1.31,2.61,3.29l-40.6,12.28c-26.45,8-78.65,23.67-88.32,45.44l-9.56,37.34,19.6,11.02c5.01,2.82,6.19,7.8,8.42,12.49,10.68,22.46,22.9,43.78,38.14,63.47l12.94,12.82c-15.69-2.88-33-3.11-48.22-10.15-14.02-6.47-19.16-21.56-19.44-36.44-30.03-1.03-44.85,12.2-78.4,1.57l-20.57-12.7c-5.07-31.91,17.81-33.1,17.65-37.38l-.16-4.37c-.35-9.52.03-19.29,3.3-28.09l2.81-7.55c1.46-3.91,3.98-8.72,7.27-11.38l8.34-6.72c1.74-1.4,3.28-2.35,5.41-1.77,1.04.28,2.21,1.88,2.91,3.48l16.28,36.83c2.06,4.66,5.96,8.72,10.68,9.25,2.85-12.27,4.04-25.77,12.45-35.39,16.24-18.57,37.93-29.26,61.01-36.29l70.5-21.47Z"></path>
    <path class="cls-4" d="M772.83,670.32l-70.5,21.47c-23.08,7.03-44.77,17.72-61.01,36.29-8.41,9.62-9.6,23.12-12.45,35.39-4.72-.53-8.62-4.6-10.68-9.25l-16.28-36.83c-.71-1.6-1.88-3.2-2.91-3.48-2.12-.58-3.67.37-5.41,1.77l-8.34,6.72c-.78-4.04,2.4-7.26,3.9-10.97,3.09-7.65,6.32-14.59,10.7-21.82l27.76-45.83c10.48,9.42,29.84,2.3,47.27,7.91,19.22,6.19,39.07,5.98,59.51,7.35,13.9.93,26.8,6.54,38.45,11.28Z"></path>
    <path class="cls-9" d="M833.05,538.92l-4.34-46.94c-.35-18.92,4.97-36.13,7.15-54.75,1.83-15.64-2.26-31.89-5.96-46.87-4.3-17.4-15.61-25.1-19.03-35.87,1.48-.55,2.56-1.54,3.91-1.43,1.61.13,2.85,1.33,4.09,2.73,21.83,24.57,36.35,52.51,48.49,82.91,15.04,37.68,21.74,78.3,11.6,117.49-1.43,5.52-6.55,9.63-10.14,10.57-13.39,3.53-26.77-15.26-35.77-27.85Z"></path>
    <path class="cls-9" d="M642.26,556.68c-3.83,7-13.3,19.3-20.88,19.36-11.63.1-14.06-17.88-14.1-32.67,0-1.89-1.37-4.57-.39-6.75-3.18-1.42-8.41-.58-9.77,2.32-2.14-.41-5.3-1.45-7.68-1.2,4.76-3.66,16.95-3.5,17-9.51.15-18.61,2.05-36.14,6.64-54.09,4.2-16.44,5.78-34.23,17.75-48.46-5.96,26.84-15.29,51.03-18.17,77.83l-1.56,34.2c-.52,11.44,3.28,29.75,10.29,31.26,7.65,1.64,19.34-21.99,24.62-35.47,21.57-54.97,25.38-116.61,44.26-172.72.78-2.31,2.11-3.85,3.8-3.97,2.04-.15,3.29,1.28,4.05,2.37,1.49,2.12-.3,3.8-1.09,5.77-10.02,25.02-13.72,51.07-19.84,77.22l-12.61,53.87c-5.03,21.47-12.05,41.84-22.33,60.63Z"></path>
    <path class="cls-9" d="M603.28,453.85c-10.45,7.45-20.03,8.54-28.66,19.38-3.13-4.16-2.17-10.34.68-15.5,1.92-3.47,7.43-8.29,12.91-7.19l15.07,3.31Z"></path>
    <path class="cls-4" d="M577.97,733.77l-2.81,7.55-19.38-2.69c-1.29-.19-3.49,1.74-4.62,1.47l-8.67-15.22c.66-.45,1.85-.13,1.32.96,9.75,5.51,22.57,6.9,34.15,7.93Z"></path>
    <path class="cls-9" d="M573.38,505.25c-.71-2.17-1.18-3.27-1.36-5.69,5.08-.93,6.96-8.26,14.61-7.1-3.21,5.89-7.92,10.27-13.25,12.78Z"></path>
    <path class="cls-9" d="M614.58,407.64l.2,4.36c-6.09,3.39-16.01-.62-15.02-3.42.37-1.06,1.81-1.69,3.31-1.58l11.51.64Z"></path>
    <path class="cls-3" d="M607.29,543.38c-3.69-.39-4.07-3.25-10.16-4.43,1.36-2.9,6.59-3.74,9.77-2.32-.97,2.17.39,4.86.39,6.75Z"></path>
    <path class="cls-10" d="M1041.45,689.98c-.92,1.01-3.37.95-3.32,3.73-4-1.54-8.84-1.21-11.95-5.49l15.27,1.76Z"></path>
    <path class="cls-4" d="M540.97,722.1c1.03,12.23,14.09,23.85,16.13,43.01-3.46-1.09-6.69-2.73-10.85-1.1l25.77,9.77c.16,4.27-22.72,5.47-17.65,37.38-2.67-1.65-5.9-2.29-9.09-4.61l-23.13-16.85-19.37-11.68c-6.58-3.97-9.43-11.45-14.03-19.2l-29.03,3.17c-31.19,8.65-72.71,15.28-102.69,6.74l-20.24-7.7c-1.94-.74-6.36-4.01-5.42-5.92,1.81-3.68,3.79-6.57,4.4-9.7l2.67-2.65c7.05-4.22,14.63-7.23,22.47-9.35-.47-1.14-1.2-1.23-1.55-1.57,8.31-.86,16.39-3.23,25.11-5.17l7.45-1.65c-.03,1.77,1.15,1.65,2.16,1.74,1.15.1,2.13-1.02,2.67-1.36l21.78-.31c1.59-.02,2.74-1.86,2.81-2.75,27.58-.15,55.08-14.89,79.67-17.83,16.33-1.95,32.5,3.96,39.97,17.59ZM335.64,754.28c5.97-6.86,12.57-9.39,19.7-14.89-7.59-.25-11.87,5.67-17.24,10.29-.93.8-5.49,1.21-2.46,4.6ZM370.9,738.93c-9.06,2.45-15.9,10.93-15.2,19.44,5.03-8.23,8.98-14.4,15.2-19.44Z"></path>
    <path class="cls-14" d="M522.15,789.71c-31.68,7.12-69.38,3.95-101.99,3.59l-40.47-.45c3.77-4.97,9.29-2.1,13.5-2.53l66.53-6.93,35.76-2.75c2.81-.22,5.02-.14,7.3-2.6l19.37,11.68Z"></path>
    <path class="cls-6" d="M542.49,724.89l8.67,15.22c7.98,14.01,9.43,32.78,20.69,29.31l.16,4.37-25.77-9.77c4.16-1.63,7.39,0,10.85,1.1-2.04-19.16-15.1-30.78-16.13-43.01l1.53,2.78Z"></path>
    <path class="cls-5" d="M421.33,722.34c-.07.89-1.22,2.73-2.81,2.75l-21.78.31c-.54.34-1.52,1.46-2.67,1.36-1.01-.09-2.19.03-2.16-1.74,1.28-.29,3.35-1.74,4.9-2.55l24.52-.13Z"></path>
    <path class="cls-12" d="M359.35,731.85c.35.34,1.09.42,1.55,1.57-7.84,2.12-15.42,5.13-22.47,9.35.67-.66,1.86-2.6,3.58-2.61,4.8-5.51,10.82-7.63,17.34-8.3Z"></path>
    <path class="cls-13" d="M577.97,733.77c-3.28,8.8-6.47,26.12-6.12,35.64-10.78,6.54-21.38-30.52-29.36-44.53,1.13.26,17.11,4.74,18.4,4.92l17.08,3.97Z"></path>
    <path class="cls-1" d="M370.9,738.93c-6.21,5.04-10.17,11.21-15.2,19.44-.7-8.51,6.14-16.99,15.2-19.44Z"></path>
    <path class="cls-2" d="M335.64,754.28c-3.03-3.39,1.53-3.8,2.46-4.6,5.37-4.62,9.64-10.55,17.24-10.29-7.13,5.5-13.72,8.03-19.7,14.89Z"></path>
    <path class="cls-13" d="M554.37,811.16h-32.22c-19.47,1.32-146.17,33.01-166.5,28.37-43.37-9.9-85.51-12.67-128.24-19.72.9-.53-52.18-25.51-92.1-41.78-.52-.21-27.14-15.35-29-16.97l197.77-11.98c10.8-2,21.27-5.22,31.68-3.66-.61,3.13-2.59,6.01-4.4,9.7-.94,1.91,3.49,5.18,5.42,5.92l20.24,7.7c29.98,8.55,71.5,1.91,102.69-6.74l29.03-3.17c4.6,7.75,7.45,15.24,14.03,19.2,3.03,2.55,1.01.73,5.67,3.42l12.47,4.72"></path>
  </g>
  <polygon class="cls-9" points="162.56 435.8 100.71 722 515.65 683.77 451.62 435.8 162.56 435.8"></polygon>
</svg>